<svg xmlns="http://www.w3.org/2000/svg" viewBox="0 0 256 257"><defs><linearGradient id="a" x1="-.8%" x2="57.6%" y1="7.7%" y2="78.4%"><stop offset="0%" stop-color="#41D1FF"/><stop offset="100%" stop-color="#BD34FE"/></linearGradient><linearGradient id="b" x1="43.4%" x2="50.3%" y1="2.2%" y2="89%"><stop offset="0%" stop-color="#FFEA83"/><stop offset="8.3%" stop-color="#FFDD35"/><stop offset="100%" stop-color="#FFA800"/></linearGradient></defs><path fill="url(#a)" d="M255.2 40.6L134.8 252.8c-2.7 4.9-9.7 5-12.5.2L.8 40.6C-2 35.5 1.8 29.4 7.5 29.4h241c5.7 0 9.5 6.1 6.7 11.2z"/><path fill="url(#b)" d="M185.5 0L96.8 153.5l-33.5-64.4c-2.6-5-9.7-5.1-12.4-.2L.8 198.8C-2 203.9 1.8 210 7.5 210h83.6l40.5-78.4 32.5 62.6c2.6 5 9.7 5.1 12.4.2L256.5 39.7c2.6-5-1.1-11.2-6.7-11.2h-64.3z"/></svg>
